<svg xmlns="http://www.w3.org/2000/svg" xml:space="preserve" width="2000" height="132" data-id="lg_yfPlNDwaH5XdAfLX1r" data-version="1" viewBox="0 0 2000 132"><g data-padding="20"><g transform="translate(10 2.357)scale(.96429)"><rect width="560" height="132.21" x="346.167" y="-400.265" fill="none" rx="0" ry="0" transform="translate(400.5 400.16)"/><path d="M801.677 11.5q-13.69 0-23.75 4.79-10.06 4.8-15.56 13.52-5.5 8.71-5.5 20.3v1.17q-1.52 4.44-2.99 9.01-1.46 4.56-2.98 9.06-1.52 4.51-3.04 9.07h9.01v24.34h40.83V78.42h13.11l8.42-27.14h-21.47q-.06 0-.06-.06v-.06q0-1.76.47-3.16t1.34-2.46q.88-1.05 2.17-1.69 1.29-.65 2.92-1 1.64-.35 3.51-.35 4.1 0 7.61 2.17 3.51 2.16 3.51 6.61l10.53-33.58q-2.69-1.64-7.37-3.04-4.68-1.41-10.12-2.29-5.44-.87-10.59-.87m66.46 91.26h-40.49V61.92h40.49v27.21Zm-40.49-40.84v-31.7h40.49v23.16l-.06.06-.06.06q-10.06 2.11-20.18 4.21Zm85.65 40.83h-40.48V15h40.48v53.58Zm56.38-26.44q6.2 0 9.6-2.22 3.39-2.22 3.51-6.08l36.15 11.81q-2.11 7.38-8.95 13.4-6.85 6.03-17.26 9.54t-23.28 3.51q-11 0-20.54-2.46-9.53-2.46-16.73-7.43-7.19-4.97-11.29-12.46-4.09-7.49-4.09-17.43 0-9.95 4.09-17.44 4.1-7.48 11.29-12.46 7.2-4.97 16.79-7.43 9.6-2.45 20.48-2.45 11.11 0 20.41 2.45 9.31 2.46 16.03 7.55 6.73 5.09 10.42 12.87 3.68 7.78 3.68 18.43h-63.88v.11q0 1.76.94 3.28.93 1.52 2.63 2.63 1.69 1.11 4.21 1.7 2.52.58 5.79.58m-.23-20q-5.74 0-9.48 2.05-3.74 2.04-3.74 5.79v.23h26.2q.12 0 .12-.06v-.17q0-1.88-.99-3.34-1-1.46-2.75-2.45-1.76-1-4.16-1.53-2.39-.52-5.2-.52m104.96-44.81q-13.69 0-23.75 4.79-10.07 4.8-15.57 13.52-5.49 8.71-5.49 20.3v1.17q-1.53 4.44-2.99 9.01-1.46 4.56-2.98 9.06-1.52 4.51-3.04 9.07h9.01v24.34h40.83V78.42h13.1l8.43-27.14h-21.47q-.06 0-.06-.06v-.06q0-1.76.47-3.16.46-1.4 1.34-2.46.88-1.05 2.17-1.69 1.28-.65 2.92-1t3.51-.35q4.1 0 7.61 2.17 3.51 2.16 3.51 6.61l10.53-33.58q-2.69-1.64-7.37-3.04-4.68-1.41-10.13-2.29-5.44-.87-10.58-.87"/><path d="M1140.857 102.75h-40.48V15h40.48v53.58Zm45.16.01h-40.48V61.92h40.48v27.21Zm-40.48-40.84v-31.7h40.48v23.16l-.05.06-.06.06q-10.06 2.11-20.19 4.21-10.12 2.11-20.18 4.21m153.98 4.45q0 8.77-3.62 15.79-3.63 7.02-9.77 12.06-6.14 5.03-13.87 7.66-7.72 2.63-16.03 2.63-4.21 0-8.71-.76-4.51-.76-8.66-2.22t-7.43-3.57h-.18q-.05 0-.05.06v18.78h-40.49V30.22h40.49V66.6q0 2.23 1.17 3.86 1.17 1.64 3.16 2.7 1.98 1.05 4.5 1.58 2.52.52 5.09.52 4.56 0 7.55-1.29 2.98-1.28 4.44-3.27t1.46-4.1q0-1.87-.81-3.45-.82-1.58-2.46-2.81-1.64-1.22-4.21-1.93-2.58-.7-5.97-.7-4.91 0-8.72 1.76-3.8 1.75-5.09 5.73l9.36-34.98q3.86-.94 7.61-1.35 3.74-.41 7.37-.41 7.14 0 13.75 1.64t12.05 4.8 9.53 7.78q4.1 4.62 6.32 10.53t2.22 13.16"/></g><path fill="transparent" stroke="transparent" d="M720 0h560v132H720z"/></g></svg>